<svg width="279" height="113" viewBox="0 0 279 113" fill="none" xmlns="http://www.w3.org/2000/svg">
<g clip-path="url(#clip0_2_144)">
<mask id="mask0_2_144" style="mask-type:alpha" maskUnits="userSpaceOnUse" x="46" y="34" width="188" height="45">
<path fill-rule="evenodd" clip-rule="evenodd" d="M167.417 56.657C167.417 60.129 163.746 63.3647 158.604 63.3647C153.463 63.3647 149.792 60.129 149.792 56.657V44.4644L145.875 44.4644V56.657C145.875 62.5636 151.848 66.9308 158.604 66.9308C165.36 66.9308 171.333 62.5636 171.333 56.657V44.4644L167.417 44.4644V56.657ZM49.9167 55.1627C49.9167 53.4261 50.9957 51.6857 53.1117 50.3096C55.2239 48.9358 58.2423 48.0305 61.6667 48.0305C65.091 48.0305 68.1094 48.9358 70.2217 50.3096C72.3377 51.6857 73.4167 53.4261 73.4167 55.1627V64.9694H77.3333V55.1627C77.3333 51.9755 75.3436 49.2582 72.4982 47.4077C69.649 45.5547 65.8132 44.4644 61.6667 44.4644C57.5201 44.4644 53.6844 45.5547 50.8352 47.4077C47.9897 49.2582 46 51.9755 46 55.1627C46 58.3498 47.9897 61.0671 50.8352 62.9176C53.6844 64.7706 57.5201 65.8609 61.6667 65.8609H68.5208V62.2948H61.6667C58.2423 62.2948 55.2239 61.3895 53.1117 60.0158C50.9957 58.6396 49.9167 56.8992 49.9167 55.1627ZM88.3617 50.3096C86.2457 51.6857 85.1667 53.4261 85.1667 55.1627C85.1667 56.8992 86.2457 58.6396 88.3617 60.0158C90.4739 61.3895 93.4923 62.2949 96.9167 62.2949H108.667V65.861H96.9167C92.7701 65.861 88.9344 64.7706 86.0852 62.9176C83.2397 61.0671 81.25 58.3498 81.25 55.1627C81.25 51.9755 83.2397 49.2582 86.0852 47.4077C88.9344 45.5547 92.7701 44.4644 96.9167 44.4644H108.667V48.0305H96.9167C93.4923 48.0305 90.4739 48.9359 88.3617 50.3096ZM116.5 55.1627C116.5 53.4261 117.579 51.6857 119.695 50.3096C121.807 48.9359 124.826 48.0305 128.25 48.0305H140V44.4644H128.25C124.103 44.4644 120.268 45.5547 117.419 47.4077C114.573 49.2582 112.583 51.9755 112.583 55.1627C112.583 58.3498 114.573 61.0671 117.419 62.9176C120.268 64.7706 124.103 65.861 128.25 65.861H140V62.2949H128.25C124.826 62.2949 121.807 61.3895 119.695 60.0158C117.579 58.6396 116.5 56.8992 116.5 55.1627Z" fill="#1D375D"/>
<path fill-rule="evenodd" clip-rule="evenodd" d="M176.281 66.5425L176.281 43.895C176.281 39.2151 179.668 34.8359 184.539 34.8359L191.527 34.8359V38.4595L184.539 38.4595C182.394 38.4595 180.092 40.5697 180.092 43.895V44.8009L191.527 44.8009V48.4245H180.092V66.5425H176.281ZM218.141 55.8659C218.141 57.662 217.072 59.462 214.976 60.8853C212.884 62.3061 209.894 63.2425 206.502 63.2425V66.9308C210.609 66.9308 214.409 65.8031 217.231 63.8866C218.415 63.0827 219.449 62.1206 220.251 61.0307C221.052 62.1206 222.087 63.0827 223.271 63.8866C226.093 65.8031 229.893 66.9308 234 66.9308L234 63.2425C230.608 63.2425 227.618 62.3061 225.526 60.8853C223.43 59.462 222.361 57.662 222.361 55.8659C222.361 54.0698 223.43 52.2698 225.526 50.8465C227.618 49.4257 230.608 48.4893 234 48.4893V44.8009C229.893 44.8009 226.093 45.9287 223.271 47.8452C222.087 48.6491 221.052 49.6112 220.251 50.7011C219.449 49.6112 218.415 48.6491 217.231 47.8452C214.409 45.9287 210.609 44.8009 206.502 44.8009V48.4893C209.894 48.4893 212.884 49.4257 214.976 50.8465C217.072 52.2698 218.141 54.0698 218.141 55.8659ZM196.706 52.5658L196.706 66.8532H200.512L200.512 52.5658H196.706ZM198.614 49.5274C200.26 49.5274 201.594 48.1973 201.594 46.5565C201.594 44.9157 200.26 43.5856 198.614 43.5856C196.969 43.5856 195.635 44.9157 195.635 46.5565C195.635 48.1973 196.969 49.5274 198.614 49.5274ZM198.438 45.1683L198.099 45.7331H197.461C197.306 45.7331 197.208 45.8941 197.286 46.0233L197.605 46.5565L197.286 47.0896C197.208 47.2188 197.306 47.3799 197.461 47.3799H198.099L198.438 47.9447C198.515 48.0743 198.711 48.0743 198.788 47.9447L199.127 47.3799H199.765C199.92 47.3799 200.018 47.2188 199.94 47.0896L199.621 46.5565L199.94 46.0233C200.018 45.8941 199.92 45.7331 199.765 45.7331H199.127L198.788 45.1683C198.711 45.0386 198.515 45.0386 198.438 45.1683Z" fill="#38C2BA"/>
<path d="M70.2762 76.7876C70.2762 76.9801 70.2367 77.1603 70.1576 77.3281C70.0785 77.4938 69.9697 77.6392 69.8313 77.7646C69.6954 77.8877 69.5347 77.985 69.3493 78.0567C69.1664 78.1283 68.97 78.1641 68.7599 78.1641H64.1404V77.4759H68.7599C68.8661 77.4759 68.965 77.458 69.0565 77.4221C69.1479 77.3863 69.227 77.3371 69.2937 77.2744C69.3629 77.2118 69.4173 77.139 69.4569 77.0562C69.4964 76.9712 69.5162 76.8816 69.5162 76.7876C69.5162 76.6936 69.4964 76.6052 69.4569 76.5224C69.4173 76.4396 69.3629 76.3669 69.2937 76.3042C69.227 76.2415 69.1479 76.1923 69.0565 76.1565C68.965 76.1207 68.8661 76.1028 68.7599 76.1028H65.6604C65.4528 76.1028 65.2563 76.067 65.0709 75.9953C64.8856 75.9237 64.7237 75.8264 64.5852 75.7033C64.4493 75.5779 64.3406 75.4313 64.259 75.2635C64.1799 75.0956 64.1404 74.9166 64.1404 74.7263C64.1404 74.5383 64.1799 74.3604 64.259 74.1925C64.3406 74.0247 64.4493 73.8792 64.5852 73.7561C64.7237 73.6307 64.8856 73.5323 65.0709 73.4606C65.2563 73.3868 65.4528 73.3499 65.6604 73.3499H69.8981V74.0381H65.6604C65.5566 74.0381 65.4577 74.056 65.3638 74.0918C65.2724 74.1276 65.192 74.1768 65.1228 74.2395C65.0536 74.3022 64.9992 74.376 64.9597 74.4611C64.9202 74.5439 64.9004 74.6323 64.9004 74.7263C64.9004 74.8203 64.9202 74.9098 64.9597 74.9949C64.9992 75.0777 65.0536 75.1504 65.1228 75.2131C65.192 75.2758 65.2724 75.325 65.3638 75.3608C65.4577 75.3966 65.5566 75.4145 65.6604 75.4145H68.7599C68.97 75.4145 69.1664 75.4515 69.3493 75.5253C69.5347 75.5969 69.6954 75.6954 69.8313 75.8208C69.9697 75.9439 70.0785 76.0893 70.1576 76.2572C70.2367 76.4228 70.2762 76.5996 70.2762 76.7876Z" fill="#1D375D"/>
<path d="M91.3668 73.3499L91.3594 75.757C91.3594 75.9808 91.3273 76.1956 91.263 76.4016C91.2012 76.6052 91.1123 76.7966 90.9961 76.9756C90.8824 77.1525 90.744 77.3147 90.5809 77.4624C90.4202 77.6079 90.241 77.7332 90.0433 77.8384C89.848 77.9414 89.6379 78.022 89.413 78.0802C89.1881 78.1361 88.9533 78.1641 88.7086 78.1641H88.1488C87.9041 78.1641 87.668 78.1361 87.4406 78.0802C87.2157 78.022 87.0044 77.9403 86.8066 77.8351C86.6114 77.7299 86.4334 77.6046 86.2728 77.4591C86.1121 77.3114 85.9737 77.1491 85.8575 76.9723C85.7438 76.7932 85.6549 76.6019 85.5906 76.3982C85.5288 76.1923 85.4979 75.9785 85.4979 75.757V73.3499H86.2579V75.757C86.2579 75.9942 86.3074 76.218 86.4062 76.4284C86.5051 76.6366 86.6398 76.819 86.8104 76.9756C86.9834 77.1301 87.1848 77.252 87.4147 77.3416C87.6445 77.4311 87.8892 77.4759 88.1488 77.4759H88.7086C88.9706 77.4759 89.2165 77.4311 89.4464 77.3416C89.6762 77.252 89.8764 77.1301 90.047 76.9756C90.2175 76.819 90.3522 76.6366 90.4511 76.4284C90.55 76.218 90.5994 75.9942 90.5994 75.757V73.3499H91.3594H91.3668Z" fill="#1D375D"/>
<path d="M113.103 78.1641H112.076L110.481 76.7876H108.153V76.1095H111.204C111.363 76.1095 111.511 76.0826 111.649 76.0289C111.788 75.973 111.908 75.898 112.009 75.804C112.113 75.71 112.194 75.6003 112.254 75.475C112.313 75.3474 112.343 75.212 112.343 75.0687C112.343 74.9255 112.313 74.7912 112.254 74.6659C112.194 74.5405 112.113 74.432 112.009 74.3402C111.908 74.2462 111.788 74.1724 111.649 74.1187C111.511 74.0649 111.363 74.0381 111.204 74.0381H107.727V78.1641H106.967V73.3499H111.204C111.466 73.3499 111.712 73.3957 111.942 73.4875C112.172 73.577 112.372 73.7001 112.543 73.8568C112.716 74.0112 112.852 74.1925 112.951 74.4007C113.052 74.6088 113.103 74.8315 113.103 75.0687C113.103 75.2836 113.062 75.4873 112.98 75.6798C112.899 75.87 112.786 76.0412 112.643 76.1934C112.499 76.3434 112.33 76.4687 112.135 76.5694C111.942 76.6679 111.733 76.7339 111.508 76.7675L113.103 78.1641Z" fill="#1D375D"/>
<path d="M134.145 78.1641H130.723C130.355 78.1641 130.02 78.1014 129.718 77.9761C129.417 77.8508 129.158 77.6795 128.943 77.4624C128.731 77.2453 128.566 76.9902 128.45 76.697C128.334 76.4038 128.276 76.0905 128.276 75.757C128.276 75.4257 128.334 75.1146 128.45 74.8237C128.566 74.5305 128.731 74.2753 128.943 74.0582C129.158 73.8389 129.417 73.6666 129.718 73.5412C130.02 73.4136 130.355 73.3499 130.723 73.3499H134.145V74.0381H130.723C130.461 74.0381 130.225 74.084 130.015 74.1757C129.807 74.2653 129.631 74.3883 129.485 74.545C129.341 74.6995 129.23 74.8807 129.151 75.0889C129.074 75.297 129.036 75.5197 129.036 75.757C129.036 75.9942 129.074 76.218 129.151 76.4284C129.23 76.6366 129.341 76.819 129.485 76.9756C129.631 77.1301 129.807 77.252 130.015 77.3416C130.225 77.4311 130.461 77.4759 130.723 77.4759H133.385V76.1028H130.167V75.4145H134.145V78.1641Z" fill="#1D375D"/>
<path d="M150.538 78.1641H149.778V73.3499H150.538V78.1641Z" fill="#1D375D"/>
<path d="M171.885 78.1641H168.463C168.094 78.1641 167.759 78.1014 167.458 77.9761C167.156 77.8508 166.898 77.6795 166.683 77.4624C166.471 77.2453 166.306 76.9902 166.19 76.697C166.074 76.4038 166.016 76.0905 166.016 75.757C166.016 75.4257 166.074 75.1146 166.19 74.8237C166.306 74.5305 166.471 74.2753 166.683 74.0582C166.898 73.8389 167.156 73.6666 167.458 73.5412C167.759 73.4136 168.094 73.3499 168.463 73.3499H171.885V74.0381H168.463C168.201 74.0381 167.965 74.084 167.755 74.1757C167.547 74.2653 167.37 74.3883 167.224 74.545C167.081 74.6995 166.97 74.8807 166.891 75.0889C166.814 75.297 166.776 75.5197 166.776 75.757C166.776 75.9942 166.814 76.218 166.891 76.4284C166.97 76.6366 167.081 76.819 167.224 76.9756C167.37 77.1301 167.547 77.252 167.755 77.3416C167.965 77.4311 168.201 77.4759 168.463 77.4759H171.885V78.1641Z" fill="#1D375D"/>
<path d="M193.353 78.1641H192.593V76.7876H188.352V76.1028H192.593V74.0381H189.868C189.609 74.0381 189.364 74.084 189.134 74.1757C188.905 74.2653 188.704 74.3883 188.534 74.545C188.363 74.6995 188.227 74.8807 188.126 75.0889C188.027 75.297 187.978 75.5197 187.978 75.757V78.1641H187.218V75.757C187.218 75.5354 187.248 75.3228 187.31 75.1191C187.375 74.9132 187.464 74.7218 187.577 74.545C187.693 74.366 187.832 74.2037 187.992 74.0582C188.156 73.9105 188.335 73.7841 188.53 73.6789C188.728 73.5737 188.939 73.4931 189.164 73.4371C189.389 73.3789 189.624 73.3499 189.868 73.3499H193.353V78.1641Z" fill="#1D375D"/>
<path d="M214.211 78.1641H209.131V73.3499H209.891V77.4759H214.211V78.1641Z" fill="#1D375D"/>
</mask>
<g mask="url(#mask0_2_144)">
<rect x="-121.933" y="-40.8959" width="478.409" height="185.651" fill="black"/>
</g>
</g>
<defs>
<clipPath id="clip0_2_144">
<rect width="279" height="113" fill="white"/>
</clipPath>
</defs>
</svg>
